<?xml version="1.0" encoding="utf-8" standalone="no"?>
<!DOCTYPE svg PUBLIC "-//W3C//DTD SVG 1.1//EN"
  "http://www.w3.org/Graphics/SVG/1.1/DTD/svg11.dtd">
<svg xmlns:xlink="http://www.w3.org/1999/xlink" width="971.24125pt" height="536.33875pt" viewBox="0 0 971.24125 536.33875" xmlns="http://www.w3.org/2000/svg" version="1.1">
 <metadata>
  <rdf:RDF xmlns:dc="http://purl.org/dc/elements/1.1/" xmlns:cc="http://creativecommons.org/ns#" xmlns:rdf="http://www.w3.org/1999/02/22-rdf-syntax-ns#">
   <cc:Work>
    <dc:type rdf:resource="http://purl.org/dc/dcmitype/StillImage"/>
    <dc:date>2023-05-17T19:12:02.943322</dc:date>
    <dc:format>image/svg+xml</dc:format>
    <dc:creator>
     <cc:Agent>
      <dc:title>Matplotlib v3.7.1, https://matplotlib.org/</dc:title>
     </cc:Agent>
    </dc:creator>
   </cc:Work>
  </rdf:RDF>
 </metadata>
 <defs>
  <style type="text/css">*{stroke-linejoin: round; stroke-linecap: butt}</style>
 </defs>
 <g id="figure_1">
  <g id="patch_1">
   <path d="M 0 536.33875 
L 971.24125 536.33875 
L 971.24125 0 
L 0 0 
z
" style="fill: #ffffff"/>
  </g>
  <g id="axes_1">
   <g id="patch_2">
    <path d="M 62.92125 491.04 
L 964.04125 491.04 
L 964.04125 7.2 
L 62.92125 7.2 
z
" style="fill: #ffffff"/>
   </g>
   <g id="matplotlib.axis_1">
    <g id="xtick_1">
     <g id="line2d_1">
      <defs>
       <path id="mfb251c9542" d="M 0 0 
L 0 3.5 
" style="stroke: #000000; stroke-width: 0.8"/>
      </defs>
      <g>
       <use xlink:href="#mfb251c9542" x="103.88125" y="491.04" style="stroke: #000000; stroke-width: 0.8"/>
      </g>
     </g>
     <g id="text_1">
      <!-- 500 -->
      <g transform="translate(90.52 508.677813) scale(0.14 -0.14)">
       <defs>
        <path id="DejaVuSans-35" d="M 691 4666 
L 3169 4666 
L 3169 4134 
L 1269 4134 
L 1269 2991 
Q 1406 3038 1543 3061 
Q 1681 3084 1819 3084 
Q 2600 3084 3056 2656 
Q 3513 2228 3513 1497 
Q 3513 744 3044 326 
Q 2575 -91 1722 -91 
Q 1428 -91 1123 -41 
Q 819 9 494 109 
L 494 744 
Q 775 591 1075 516 
Q 1375 441 1709 441 
Q 2250 441 2565 725 
Q 2881 1009 2881 1497 
Q 2881 1984 2565 2268 
Q 2250 2553 1709 2553 
Q 1456 2553 1204 2497 
Q 953 2441 691 2322 
L 691 4666 
z
" transform="scale(0.015625)"/>
        <path id="DejaVuSans-30" d="M 2034 4250 
Q 1547 4250 1301 3770 
Q 1056 3291 1056 2328 
Q 1056 1369 1301 889 
Q 1547 409 2034 409 
Q 2525 409 2770 889 
Q 3016 1369 3016 2328 
Q 3016 3291 2770 3770 
Q 2525 4250 2034 4250 
z
M 2034 4750 
Q 2819 4750 3233 4129 
Q 3647 3509 3647 2328 
Q 3647 1150 3233 529 
Q 2819 -91 2034 -91 
Q 1250 -91 836 529 
Q 422 1150 422 2328 
Q 422 3509 836 4129 
Q 1250 4750 2034 4750 
z
" transform="scale(0.015625)"/>
       </defs>
       <use xlink:href="#DejaVuSans-35"/>
       <use xlink:href="#DejaVuSans-30" x="63.623047"/>
       <use xlink:href="#DejaVuSans-30" x="127.246094"/>
      </g>
     </g>
    </g>
    <g id="xtick_2">
     <g id="line2d_2">
      <g>
       <use xlink:href="#mfb251c9542" x="185.80125" y="491.04" style="stroke: #000000; stroke-width: 0.8"/>
      </g>
     </g>
     <g id="text_2">
      <!-- 1250 -->
      <g transform="translate(167.98625 508.677813) scale(0.14 -0.14)">
       <defs>
        <path id="DejaVuSans-31" d="M 794 531 
L 1825 531 
L 1825 4091 
L 703 3866 
L 703 4441 
L 1819 4666 
L 2450 4666 
L 2450 531 
L 3481 531 
L 3481 0 
L 794 0 
L 794 531 
z
" transform="scale(0.015625)"/>
        <path id="DejaVuSans-32" d="M 1228 531 
L 3431 531 
L 3431 0 
L 469 0 
L 469 531 
Q 828 903 1448 1529 
Q 2069 2156 2228 2338 
Q 2531 2678 2651 2914 
Q 2772 3150 2772 3378 
Q 2772 3750 2511 3984 
Q 2250 4219 1831 4219 
Q 1534 4219 1204 4116 
Q 875 4013 500 3803 
L 500 4441 
Q 881 4594 1212 4672 
Q 1544 4750 1819 4750 
Q 2544 4750 2975 4387 
Q 3406 4025 3406 3419 
Q 3406 3131 3298 2873 
Q 3191 2616 2906 2266 
Q 2828 2175 2409 1742 
Q 1991 1309 1228 531 
z
" transform="scale(0.015625)"/>
       </defs>
       <use xlink:href="#DejaVuSans-31"/>
       <use xlink:href="#DejaVuSans-32" x="63.623047"/>
       <use xlink:href="#DejaVuSans-35" x="127.246094"/>
       <use xlink:href="#DejaVuSans-30" x="190.869141"/>
      </g>
     </g>
    </g>
    <g id="xtick_3">
     <g id="line2d_3">
      <g>
       <use xlink:href="#mfb251c9542" x="267.72125" y="491.04" style="stroke: #000000; stroke-width: 0.8"/>
      </g>
     </g>
     <g id="text_3">
      <!-- 2000 -->
      <g transform="translate(249.90625 508.677813) scale(0.14 -0.14)">
       <use xlink:href="#DejaVuSans-32"/>
       <use xlink:href="#DejaVuSans-30" x="63.623047"/>
       <use xlink:href="#DejaVuSans-30" x="127.246094"/>
       <use xlink:href="#DejaVuSans-30" x="190.869141"/>
      </g>
     </g>
    </g>
    <g id="xtick_4">
     <g id="line2d_4">
      <g>
       <use xlink:href="#mfb251c9542" x="349.64125" y="491.04" style="stroke: #000000; stroke-width: 0.8"/>
      </g>
     </g>
     <g id="text_4">
      <!-- 2750 -->
      <g transform="translate(331.82625 508.677813) scale(0.14 -0.14)">
       <defs>
        <path id="DejaVuSans-37" d="M 525 4666 
L 3525 4666 
L 3525 4397 
L 1831 0 
L 1172 0 
L 2766 4134 
L 525 4134 
L 525 4666 
z
" transform="scale(0.015625)"/>
       </defs>
       <use xlink:href="#DejaVuSans-32"/>
       <use xlink:href="#DejaVuSans-37" x="63.623047"/>
       <use xlink:href="#DejaVuSans-35" x="127.246094"/>
       <use xlink:href="#DejaVuSans-30" x="190.869141"/>
      </g>
     </g>
    </g>
    <g id="xtick_5">
     <g id="line2d_5">
      <g>
       <use xlink:href="#mfb251c9542" x="431.56125" y="491.04" style="stroke: #000000; stroke-width: 0.8"/>
      </g>
     </g>
     <g id="text_5">
      <!-- 3500 -->
      <g transform="translate(413.74625 508.677813) scale(0.14 -0.14)">
       <defs>
        <path id="DejaVuSans-33" d="M 2597 2516 
Q 3050 2419 3304 2112 
Q 3559 1806 3559 1356 
Q 3559 666 3084 287 
Q 2609 -91 1734 -91 
Q 1441 -91 1130 -33 
Q 819 25 488 141 
L 488 750 
Q 750 597 1062 519 
Q 1375 441 1716 441 
Q 2309 441 2620 675 
Q 2931 909 2931 1356 
Q 2931 1769 2642 2001 
Q 2353 2234 1838 2234 
L 1294 2234 
L 1294 2753 
L 1863 2753 
Q 2328 2753 2575 2939 
Q 2822 3125 2822 3475 
Q 2822 3834 2567 4026 
Q 2313 4219 1838 4219 
Q 1578 4219 1281 4162 
Q 984 4106 628 3988 
L 628 4550 
Q 988 4650 1302 4700 
Q 1616 4750 1894 4750 
Q 2613 4750 3031 4423 
Q 3450 4097 3450 3541 
Q 3450 3153 3228 2886 
Q 3006 2619 2597 2516 
z
" transform="scale(0.015625)"/>
       </defs>
       <use xlink:href="#DejaVuSans-33"/>
       <use xlink:href="#DejaVuSans-35" x="63.623047"/>
       <use xlink:href="#DejaVuSans-30" x="127.246094"/>
       <use xlink:href="#DejaVuSans-30" x="190.869141"/>
      </g>
     </g>
    </g>
    <g id="xtick_6">
     <g id="line2d_6">
      <g>
       <use xlink:href="#mfb251c9542" x="513.48125" y="491.04" style="stroke: #000000; stroke-width: 0.8"/>
      </g>
     </g>
     <g id="text_6">
      <!-- 4250 -->
      <g transform="translate(495.66625 508.677813) scale(0.14 -0.14)">
       <defs>
        <path id="DejaVuSans-34" d="M 2419 4116 
L 825 1625 
L 2419 1625 
L 2419 4116 
z
M 2253 4666 
L 3047 4666 
L 3047 1625 
L 3713 1625 
L 3713 1100 
L 3047 1100 
L 3047 0 
L 2419 0 
L 2419 1100 
L 313 1100 
L 313 1709 
L 2253 4666 
z
" transform="scale(0.015625)"/>
       </defs>
       <use xlink:href="#DejaVuSans-34"/>
       <use xlink:href="#DejaVuSans-32" x="63.623047"/>
       <use xlink:href="#DejaVuSans-35" x="127.246094"/>
       <use xlink:href="#DejaVuSans-30" x="190.869141"/>
      </g>
     </g>
    </g>
    <g id="xtick_7">
     <g id="line2d_7">
      <g>
       <use xlink:href="#mfb251c9542" x="595.40125" y="491.04" style="stroke: #000000; stroke-width: 0.8"/>
      </g>
     </g>
     <g id="text_7">
      <!-- 5000 -->
      <g transform="translate(577.58625 508.677813) scale(0.14 -0.14)">
       <use xlink:href="#DejaVuSans-35"/>
       <use xlink:href="#DejaVuSans-30" x="63.623047"/>
       <use xlink:href="#DejaVuSans-30" x="127.246094"/>
       <use xlink:href="#DejaVuSans-30" x="190.869141"/>
      </g>
     </g>
    </g>
    <g id="xtick_8">
     <g id="line2d_8">
      <g>
       <use xlink:href="#mfb251c9542" x="677.32125" y="491.04" style="stroke: #000000; stroke-width: 0.8"/>
      </g>
     </g>
     <g id="text_8">
      <!-- 5750 -->
      <g transform="translate(659.50625 508.677813) scale(0.14 -0.14)">
       <use xlink:href="#DejaVuSans-35"/>
       <use xlink:href="#DejaVuSans-37" x="63.623047"/>
       <use xlink:href="#DejaVuSans-35" x="127.246094"/>
       <use xlink:href="#DejaVuSans-30" x="190.869141"/>
      </g>
     </g>
    </g>
    <g id="xtick_9">
     <g id="line2d_9">
      <g>
       <use xlink:href="#mfb251c9542" x="759.24125" y="491.04" style="stroke: #000000; stroke-width: 0.8"/>
      </g>
     </g>
     <g id="text_9">
      <!-- 6500 -->
      <g transform="translate(741.42625 508.677813) scale(0.14 -0.14)">
       <defs>
        <path id="DejaVuSans-36" d="M 2113 2584 
Q 1688 2584 1439 2293 
Q 1191 2003 1191 1497 
Q 1191 994 1439 701 
Q 1688 409 2113 409 
Q 2538 409 2786 701 
Q 3034 994 3034 1497 
Q 3034 2003 2786 2293 
Q 2538 2584 2113 2584 
z
M 3366 4563 
L 3366 3988 
Q 3128 4100 2886 4159 
Q 2644 4219 2406 4219 
Q 1781 4219 1451 3797 
Q 1122 3375 1075 2522 
Q 1259 2794 1537 2939 
Q 1816 3084 2150 3084 
Q 2853 3084 3261 2657 
Q 3669 2231 3669 1497 
Q 3669 778 3244 343 
Q 2819 -91 2113 -91 
Q 1303 -91 875 529 
Q 447 1150 447 2328 
Q 447 3434 972 4092 
Q 1497 4750 2381 4750 
Q 2619 4750 2861 4703 
Q 3103 4656 3366 4563 
z
" transform="scale(0.015625)"/>
       </defs>
       <use xlink:href="#DejaVuSans-36"/>
       <use xlink:href="#DejaVuSans-35" x="63.623047"/>
       <use xlink:href="#DejaVuSans-30" x="127.246094"/>
       <use xlink:href="#DejaVuSans-30" x="190.869141"/>
      </g>
     </g>
    </g>
    <g id="xtick_10">
     <g id="line2d_10">
      <g>
       <use xlink:href="#mfb251c9542" x="841.16125" y="491.04" style="stroke: #000000; stroke-width: 0.8"/>
      </g>
     </g>
     <g id="text_10">
      <!-- 7250 -->
      <g transform="translate(823.34625 508.677813) scale(0.14 -0.14)">
       <use xlink:href="#DejaVuSans-37"/>
       <use xlink:href="#DejaVuSans-32" x="63.623047"/>
       <use xlink:href="#DejaVuSans-35" x="127.246094"/>
       <use xlink:href="#DejaVuSans-30" x="190.869141"/>
      </g>
     </g>
    </g>
    <g id="xtick_11">
     <g id="line2d_11">
      <g>
       <use xlink:href="#mfb251c9542" x="923.08125" y="491.04" style="stroke: #000000; stroke-width: 0.8"/>
      </g>
     </g>
     <g id="text_11">
      <!-- 8000 -->
      <g transform="translate(905.26625 508.677813) scale(0.14 -0.14)">
       <defs>
        <path id="DejaVuSans-38" d="M 2034 2216 
Q 1584 2216 1326 1975 
Q 1069 1734 1069 1313 
Q 1069 891 1326 650 
Q 1584 409 2034 409 
Q 2484 409 2743 651 
Q 3003 894 3003 1313 
Q 3003 1734 2745 1975 
Q 2488 2216 2034 2216 
z
M 1403 2484 
Q 997 2584 770 2862 
Q 544 3141 544 3541 
Q 544 4100 942 4425 
Q 1341 4750 2034 4750 
Q 2731 4750 3128 4425 
Q 3525 4100 3525 3541 
Q 3525 3141 3298 2862 
Q 3072 2584 2669 2484 
Q 3125 2378 3379 2068 
Q 3634 1759 3634 1313 
Q 3634 634 3220 271 
Q 2806 -91 2034 -91 
Q 1263 -91 848 271 
Q 434 634 434 1313 
Q 434 1759 690 2068 
Q 947 2378 1403 2484 
z
M 1172 3481 
Q 1172 3119 1398 2916 
Q 1625 2713 2034 2713 
Q 2441 2713 2670 2916 
Q 2900 3119 2900 3481 
Q 2900 3844 2670 4047 
Q 2441 4250 2034 4250 
Q 1625 4250 1398 4047 
Q 1172 3844 1172 3481 
z
" transform="scale(0.015625)"/>
       </defs>
       <use xlink:href="#DejaVuSans-38"/>
       <use xlink:href="#DejaVuSans-30" x="63.623047"/>
       <use xlink:href="#DejaVuSans-30" x="127.246094"/>
       <use xlink:href="#DejaVuSans-30" x="190.869141"/>
      </g>
     </g>
    </g>
    <g id="text_12">
     <!-- workload -->
     <g transform="translate(481.580938 526.227188) scale(0.14 -0.14)">
      <defs>
       <path id="DejaVuSans-77" d="M 269 3500 
L 844 3500 
L 1563 769 
L 2278 3500 
L 2956 3500 
L 3675 769 
L 4391 3500 
L 4966 3500 
L 4050 0 
L 3372 0 
L 2619 2869 
L 1863 0 
L 1184 0 
L 269 3500 
z
" transform="scale(0.015625)"/>
       <path id="DejaVuSans-6f" d="M 1959 3097 
Q 1497 3097 1228 2736 
Q 959 2375 959 1747 
Q 959 1119 1226 758 
Q 1494 397 1959 397 
Q 2419 397 2687 759 
Q 2956 1122 2956 1747 
Q 2956 2369 2687 2733 
Q 2419 3097 1959 3097 
z
M 1959 3584 
Q 2709 3584 3137 3096 
Q 3566 2609 3566 1747 
Q 3566 888 3137 398 
Q 2709 -91 1959 -91 
Q 1206 -91 779 398 
Q 353 888 353 1747 
Q 353 2609 779 3096 
Q 1206 3584 1959 3584 
z
" transform="scale(0.015625)"/>
       <path id="DejaVuSans-72" d="M 2631 2963 
Q 2534 3019 2420 3045 
Q 2306 3072 2169 3072 
Q 1681 3072 1420 2755 
Q 1159 2438 1159 1844 
L 1159 0 
L 581 0 
L 581 3500 
L 1159 3500 
L 1159 2956 
Q 1341 3275 1631 3429 
Q 1922 3584 2338 3584 
Q 2397 3584 2469 3576 
Q 2541 3569 2628 3553 
L 2631 2963 
z
" transform="scale(0.015625)"/>
       <path id="DejaVuSans-6b" d="M 581 4863 
L 1159 4863 
L 1159 1991 
L 2875 3500 
L 3609 3500 
L 1753 1863 
L 3688 0 
L 2938 0 
L 1159 1709 
L 1159 0 
L 581 0 
L 581 4863 
z
" transform="scale(0.015625)"/>
       <path id="DejaVuSans-6c" d="M 603 4863 
L 1178 4863 
L 1178 0 
L 603 0 
L 603 4863 
z
" transform="scale(0.015625)"/>
       <path id="DejaVuSans-61" d="M 2194 1759 
Q 1497 1759 1228 1600 
Q 959 1441 959 1056 
Q 959 750 1161 570 
Q 1363 391 1709 391 
Q 2188 391 2477 730 
Q 2766 1069 2766 1631 
L 2766 1759 
L 2194 1759 
z
M 3341 1997 
L 3341 0 
L 2766 0 
L 2766 531 
Q 2569 213 2275 61 
Q 1981 -91 1556 -91 
Q 1019 -91 701 211 
Q 384 513 384 1019 
Q 384 1609 779 1909 
Q 1175 2209 1959 2209 
L 2766 2209 
L 2766 2266 
Q 2766 2663 2505 2880 
Q 2244 3097 1772 3097 
Q 1472 3097 1187 3025 
Q 903 2953 641 2809 
L 641 3341 
Q 956 3463 1253 3523 
Q 1550 3584 1831 3584 
Q 2591 3584 2966 3190 
Q 3341 2797 3341 1997 
z
" transform="scale(0.015625)"/>
       <path id="DejaVuSans-64" d="M 2906 2969 
L 2906 4863 
L 3481 4863 
L 3481 0 
L 2906 0 
L 2906 525 
Q 2725 213 2448 61 
Q 2172 -91 1784 -91 
Q 1150 -91 751 415 
Q 353 922 353 1747 
Q 353 2572 751 3078 
Q 1150 3584 1784 3584 
Q 2172 3584 2448 3432 
Q 2725 3281 2906 2969 
z
M 947 1747 
Q 947 1113 1208 752 
Q 1469 391 1925 391 
Q 2381 391 2643 752 
Q 2906 1113 2906 1747 
Q 2906 2381 2643 2742 
Q 2381 3103 1925 3103 
Q 1469 3103 1208 2742 
Q 947 2381 947 1747 
z
" transform="scale(0.015625)"/>
      </defs>
      <use xlink:href="#DejaVuSans-77"/>
      <use xlink:href="#DejaVuSans-6f" x="81.787109"/>
      <use xlink:href="#DejaVuSans-72" x="142.96875"/>
      <use xlink:href="#DejaVuSans-6b" x="184.082031"/>
      <use xlink:href="#DejaVuSans-6c" x="241.992188"/>
      <use xlink:href="#DejaVuSans-6f" x="269.775391"/>
      <use xlink:href="#DejaVuSans-61" x="330.957031"/>
      <use xlink:href="#DejaVuSans-64" x="392.236328"/>
     </g>
    </g>
   </g>
   <g id="matplotlib.axis_2">
    <g id="ytick_1">
     <g id="line2d_12">
      <defs>
       <path id="mbe2e0cfcae" d="M 0 0 
L -3.5 0 
" style="stroke: #000000; stroke-width: 0.8"/>
      </defs>
      <g>
       <use xlink:href="#mbe2e0cfcae" x="62.92125" y="452.761761" style="stroke: #000000; stroke-width: 0.8"/>
      </g>
     </g>
     <g id="text_13">
      <!-- 0.64 -->
      <g transform="translate(24.749375 458.080667) scale(0.14 -0.14)">
       <defs>
        <path id="DejaVuSans-2e" d="M 684 794 
L 1344 794 
L 1344 0 
L 684 0 
L 684 794 
z
" transform="scale(0.015625)"/>
       </defs>
       <use xlink:href="#DejaVuSans-30"/>
       <use xlink:href="#DejaVuSans-2e" x="63.623047"/>
       <use xlink:href="#DejaVuSans-36" x="95.410156"/>
       <use xlink:href="#DejaVuSans-34" x="159.033203"/>
      </g>
     </g>
    </g>
    <g id="ytick_2">
     <g id="line2d_13">
      <g>
       <use xlink:href="#mbe2e0cfcae" x="62.92125" y="395.76247" style="stroke: #000000; stroke-width: 0.8"/>
      </g>
     </g>
     <g id="text_14">
      <!-- 0.71 -->
      <g transform="translate(24.749375 401.081377) scale(0.14 -0.14)">
       <use xlink:href="#DejaVuSans-30"/>
       <use xlink:href="#DejaVuSans-2e" x="63.623047"/>
       <use xlink:href="#DejaVuSans-37" x="95.410156"/>
       <use xlink:href="#DejaVuSans-31" x="159.033203"/>
      </g>
     </g>
    </g>
    <g id="ytick_3">
     <g id="line2d_14">
      <g>
       <use xlink:href="#mbe2e0cfcae" x="62.92125" y="338.76318" style="stroke: #000000; stroke-width: 0.8"/>
      </g>
     </g>
     <g id="text_15">
      <!-- 0.78 -->
      <g transform="translate(24.749375 344.082086) scale(0.14 -0.14)">
       <use xlink:href="#DejaVuSans-30"/>
       <use xlink:href="#DejaVuSans-2e" x="63.623047"/>
       <use xlink:href="#DejaVuSans-37" x="95.410156"/>
       <use xlink:href="#DejaVuSans-38" x="159.033203"/>
      </g>
     </g>
    </g>
    <g id="ytick_4">
     <g id="line2d_15">
      <g>
       <use xlink:href="#mbe2e0cfcae" x="62.92125" y="281.763889" style="stroke: #000000; stroke-width: 0.8"/>
      </g>
     </g>
     <g id="text_16">
      <!-- 0.85 -->
      <g transform="translate(24.749375 287.082795) scale(0.14 -0.14)">
       <use xlink:href="#DejaVuSans-30"/>
       <use xlink:href="#DejaVuSans-2e" x="63.623047"/>
       <use xlink:href="#DejaVuSans-38" x="95.410156"/>
       <use xlink:href="#DejaVuSans-35" x="159.033203"/>
      </g>
     </g>
    </g>
    <g id="ytick_5">
     <g id="line2d_16">
      <g>
       <use xlink:href="#mbe2e0cfcae" x="62.92125" y="224.764598" style="stroke: #000000; stroke-width: 0.8"/>
      </g>
     </g>
     <g id="text_17">
      <!-- 0.92 -->
      <g transform="translate(24.749375 230.083504) scale(0.14 -0.14)">
       <defs>
        <path id="DejaVuSans-39" d="M 703 97 
L 703 672 
Q 941 559 1184 500 
Q 1428 441 1663 441 
Q 2288 441 2617 861 
Q 2947 1281 2994 2138 
Q 2813 1869 2534 1725 
Q 2256 1581 1919 1581 
Q 1219 1581 811 2004 
Q 403 2428 403 3163 
Q 403 3881 828 4315 
Q 1253 4750 1959 4750 
Q 2769 4750 3195 4129 
Q 3622 3509 3622 2328 
Q 3622 1225 3098 567 
Q 2575 -91 1691 -91 
Q 1453 -91 1209 -44 
Q 966 3 703 97 
z
M 1959 2075 
Q 2384 2075 2632 2365 
Q 2881 2656 2881 3163 
Q 2881 3666 2632 3958 
Q 2384 4250 1959 4250 
Q 1534 4250 1286 3958 
Q 1038 3666 1038 3163 
Q 1038 2656 1286 2365 
Q 1534 2075 1959 2075 
z
" transform="scale(0.015625)"/>
       </defs>
       <use xlink:href="#DejaVuSans-30"/>
       <use xlink:href="#DejaVuSans-2e" x="63.623047"/>
       <use xlink:href="#DejaVuSans-39" x="95.410156"/>
       <use xlink:href="#DejaVuSans-32" x="159.033203"/>
      </g>
     </g>
    </g>
    <g id="ytick_6">
     <g id="line2d_17">
      <g>
       <use xlink:href="#mbe2e0cfcae" x="62.92125" y="167.765307" style="stroke: #000000; stroke-width: 0.8"/>
      </g>
     </g>
     <g id="text_18">
      <!-- 0.99 -->
      <g transform="translate(24.749375 173.084213) scale(0.14 -0.14)">
       <use xlink:href="#DejaVuSans-30"/>
       <use xlink:href="#DejaVuSans-2e" x="63.623047"/>
       <use xlink:href="#DejaVuSans-39" x="95.410156"/>
       <use xlink:href="#DejaVuSans-39" x="159.033203"/>
      </g>
     </g>
    </g>
    <g id="ytick_7">
     <g id="line2d_18">
      <g>
       <use xlink:href="#mbe2e0cfcae" x="62.92125" y="110.766016" style="stroke: #000000; stroke-width: 0.8"/>
      </g>
     </g>
     <g id="text_19">
      <!-- 1.06 -->
      <g transform="translate(24.749375 116.084923) scale(0.14 -0.14)">
       <use xlink:href="#DejaVuSans-31"/>
       <use xlink:href="#DejaVuSans-2e" x="63.623047"/>
       <use xlink:href="#DejaVuSans-30" x="95.410156"/>
       <use xlink:href="#DejaVuSans-36" x="159.033203"/>
      </g>
     </g>
    </g>
    <g id="ytick_8">
     <g id="line2d_19">
      <g>
       <use xlink:href="#mbe2e0cfcae" x="62.92125" y="53.766726" style="stroke: #000000; stroke-width: 0.8"/>
      </g>
     </g>
     <g id="text_20">
      <!-- 1.13 -->
      <g transform="translate(24.749375 59.085632) scale(0.14 -0.14)">
       <use xlink:href="#DejaVuSans-31"/>
       <use xlink:href="#DejaVuSans-2e" x="63.623047"/>
       <use xlink:href="#DejaVuSans-31" x="95.410156"/>
       <use xlink:href="#DejaVuSans-33" x="159.033203"/>
      </g>
     </g>
    </g>
    <g id="text_21">
     <!-- speed-up -->
     <g transform="translate(17.837813 281.674375) rotate(-90) scale(0.14 -0.14)">
      <defs>
       <path id="DejaVuSans-73" d="M 2834 3397 
L 2834 2853 
Q 2591 2978 2328 3040 
Q 2066 3103 1784 3103 
Q 1356 3103 1142 2972 
Q 928 2841 928 2578 
Q 928 2378 1081 2264 
Q 1234 2150 1697 2047 
L 1894 2003 
Q 2506 1872 2764 1633 
Q 3022 1394 3022 966 
Q 3022 478 2636 193 
Q 2250 -91 1575 -91 
Q 1294 -91 989 -36 
Q 684 19 347 128 
L 347 722 
Q 666 556 975 473 
Q 1284 391 1588 391 
Q 1994 391 2212 530 
Q 2431 669 2431 922 
Q 2431 1156 2273 1281 
Q 2116 1406 1581 1522 
L 1381 1569 
Q 847 1681 609 1914 
Q 372 2147 372 2553 
Q 372 3047 722 3315 
Q 1072 3584 1716 3584 
Q 2034 3584 2315 3537 
Q 2597 3491 2834 3397 
z
" transform="scale(0.015625)"/>
       <path id="DejaVuSans-70" d="M 1159 525 
L 1159 -1331 
L 581 -1331 
L 581 3500 
L 1159 3500 
L 1159 2969 
Q 1341 3281 1617 3432 
Q 1894 3584 2278 3584 
Q 2916 3584 3314 3078 
Q 3713 2572 3713 1747 
Q 3713 922 3314 415 
Q 2916 -91 2278 -91 
Q 1894 -91 1617 61 
Q 1341 213 1159 525 
z
M 3116 1747 
Q 3116 2381 2855 2742 
Q 2594 3103 2138 3103 
Q 1681 3103 1420 2742 
Q 1159 2381 1159 1747 
Q 1159 1113 1420 752 
Q 1681 391 2138 391 
Q 2594 391 2855 752 
Q 3116 1113 3116 1747 
z
" transform="scale(0.015625)"/>
       <path id="DejaVuSans-65" d="M 3597 1894 
L 3597 1613 
L 953 1613 
Q 991 1019 1311 708 
Q 1631 397 2203 397 
Q 2534 397 2845 478 
Q 3156 559 3463 722 
L 3463 178 
Q 3153 47 2828 -22 
Q 2503 -91 2169 -91 
Q 1331 -91 842 396 
Q 353 884 353 1716 
Q 353 2575 817 3079 
Q 1281 3584 2069 3584 
Q 2775 3584 3186 3129 
Q 3597 2675 3597 1894 
z
M 3022 2063 
Q 3016 2534 2758 2815 
Q 2500 3097 2075 3097 
Q 1594 3097 1305 2825 
Q 1016 2553 972 2059 
L 3022 2063 
z
" transform="scale(0.015625)"/>
       <path id="DejaVuSans-2d" d="M 313 2009 
L 1997 2009 
L 1997 1497 
L 313 1497 
L 313 2009 
z
" transform="scale(0.015625)"/>
       <path id="DejaVuSans-75" d="M 544 1381 
L 544 3500 
L 1119 3500 
L 1119 1403 
Q 1119 906 1312 657 
Q 1506 409 1894 409 
Q 2359 409 2629 706 
Q 2900 1003 2900 1516 
L 2900 3500 
L 3475 3500 
L 3475 0 
L 2900 0 
L 2900 538 
Q 2691 219 2414 64 
Q 2138 -91 1772 -91 
Q 1169 -91 856 284 
Q 544 659 544 1381 
z
M 1991 3584 
L 1991 3584 
z
" transform="scale(0.015625)"/>
      </defs>
      <use xlink:href="#DejaVuSans-73"/>
      <use xlink:href="#DejaVuSans-70" x="52.099609"/>
      <use xlink:href="#DejaVuSans-65" x="115.576172"/>
      <use xlink:href="#DejaVuSans-65" x="177.099609"/>
      <use xlink:href="#DejaVuSans-64" x="238.623047"/>
      <use xlink:href="#DejaVuSans-2d" x="302.099609"/>
      <use xlink:href="#DejaVuSans-75" x="338.183594"/>
      <use xlink:href="#DejaVuSans-70" x="401.5625"/>
     </g>
    </g>
   </g>
   <g id="line2d_20">
    <path d="M 103.88125 306.192156 
L 107.164617 297.153539 
L 110.447983 288.687535 
L 113.73135 280.772577 
L 117.014717 273.387099 
L 120.298084 266.509534 
L 123.58145 260.118315 
L 126.864817 254.191875 
L 130.148184 248.708647 
L 133.431551 243.647065 
L 136.714917 238.985562 
L 139.998284 234.702571 
L 143.281651 230.776525 
L 146.565018 227.185858 
L 149.848384 223.909002 
L 153.131751 220.92439 
L 156.415118 218.210457 
L 159.698484 215.745635 
L 162.981851 213.508358 
L 166.265218 211.477058 
L 171.190268 208.769139 
L 176.115318 206.403356 
L 181.040368 204.306921 
L 187.607102 201.804856 
L 207.307302 194.669959 
L 212.232352 192.5891 
L 217.157402 190.252035 
L 222.082452 187.650816 
L 227.007503 184.801336 
L 231.932553 181.719569 
L 236.857603 178.421487 
L 243.424336 173.715167 
L 249.99107 168.690552 
L 256.557803 163.385507 
L 264.76622 156.417528 
L 272.974637 149.144494 
L 282.824737 140.118307 
L 297.599887 126.234596 
L 317.300088 107.750957 
L 327.150188 98.808659 
L 335.358605 91.634013 
L 343.567022 84.790315 
L 350.133755 79.603336 
L 356.700488 74.713359 
L 363.267222 70.158246 
L 368.192272 66.984446 
L 373.117322 64.036279 
L 378.042372 61.329722 
L 382.967422 58.880671 
L 387.892472 56.704872 
L 392.817523 54.818047 
L 397.742573 53.23592 
L 402.667623 51.974216 
L 405.950989 51.318857 
L 409.234356 50.817555 
L 412.517723 50.474969 
L 415.80109 50.295758 
L 419.084456 50.28458 
L 422.367823 50.446095 
L 425.65119 50.784962 
L 428.934557 51.305839 
L 432.217923 52.013385 
L 435.50129 52.912259 
L 438.784657 54.007121 
L 442.068024 55.302628 
L 445.35139 56.803441 
L 448.634757 58.514217 
L 451.918124 60.439616 
L 455.20149 62.584296 
L 458.484857 64.952916 
L 461.768224 67.550136 
L 465.051591 70.380614 
L 468.334957 73.44901 
L 471.618324 76.759981 
L 474.901691 80.318187 
L 478.185058 84.128287 
L 481.468424 88.194939 
L 484.751791 92.522803 
L 488.035158 97.115957 
L 492.960208 104.487707 
L 497.885258 112.394958 
L 502.810308 120.788901 
L 507.735358 129.620725 
L 512.660408 138.841621 
L 519.227142 151.657009 
L 525.793875 164.96161 
L 534.002292 182.104057 
L 547.135759 210.181868 
L 561.910909 241.711341 
L 570.119326 258.737154 
L 576.68606 271.910276 
L 583.252793 284.560255 
L 588.177843 293.634828 
L 593.102893 302.301244 
L 598.027943 310.512275 
L 602.952993 318.25198 
L 607.878044 325.533097 
L 612.803094 332.369423 
L 617.728144 338.774756 
L 622.653194 344.762893 
L 627.578244 350.347633 
L 632.503294 355.542773 
L 637.428344 360.362112 
L 642.353394 364.819446 
L 647.278444 368.928574 
L 652.203494 372.703293 
L 657.128545 376.157402 
L 662.053595 379.304698 
L 666.978645 382.158978 
L 671.903695 384.734042 
L 676.828745 387.043685 
L 681.753795 389.101708 
L 686.678845 390.921906 
L 691.603895 392.518078 
L 696.528945 393.904021 
L 701.453995 395.093534 
L 706.379046 396.100415 
L 712.945779 397.182675 
L 719.512513 397.997489 
L 726.079246 398.577565 
L 732.645979 398.955607 
L 740.854396 399.193875 
L 750.704496 399.220501 
L 763.837963 398.997228 
L 783.538164 398.639274 
L 793.388264 398.689089 
L 801.596681 398.954858 
L 808.163414 399.360252 
L 814.730148 399.972436 
L 821.296881 400.824116 
L 827.863615 401.947999 
L 832.788665 402.989218 
L 837.713715 404.215745 
L 842.638765 405.641379 
L 847.563815 407.279916 
L 852.488865 409.145156 
L 857.413915 411.250895 
L 862.338965 413.610932 
L 867.264016 416.239064 
L 872.189066 419.149089 
L 877.114116 422.354805 
L 882.039166 425.870009 
L 886.964216 429.7085 
L 891.889266 433.884075 
L 896.814316 438.410532 
L 901.739366 443.301669 
L 906.664416 448.571284 
L 911.589466 454.233174 
L 916.514517 460.301137 
L 921.439567 466.788972 
L 923.08125 469.047273 
L 923.08125 469.047273 
" clip-path="url(#pb1d6ca981d)" style="fill: none; stroke: #1f77b4; stroke-width: 1.5; stroke-linecap: square"/>
   </g>
   <g id="line2d_21">
    <path d="M 103.88125 355.048691 
L 108.8063 353.894819 
L 113.73135 352.472146 
L 118.6564 350.800752 
L 123.58145 348.900718 
L 128.506501 346.792121 
L 135.073234 343.690935 
L 141.639967 340.302264 
L 148.206701 336.673706 
L 156.415118 331.873173 
L 166.265218 325.846818 
L 194.173835 308.554957 
L 202.382252 303.78977 
L 208.948985 300.198577 
L 215.515719 296.854638 
L 222.082452 293.770721 
L 228.649186 290.911208 
L 236.857603 287.592514 
L 246.707703 283.88379 
L 263.124537 278.022252 
L 276.258004 273.267039 
L 286.108104 269.45582 
L 294.316521 266.012568 
L 300.883254 263.027785 
L 307.449987 259.795822 
L 314.016721 256.27738 
L 318.941771 253.426907 
L 323.866821 250.376605 
L 328.791871 247.109896 
L 333.716921 243.610199 
L 338.641971 239.860937 
L 343.567022 235.84553 
L 348.492072 231.547399 
L 353.417122 226.949965 
L 358.342172 222.036648 
L 363.267222 216.79087 
L 368.192272 211.196052 
L 373.117322 205.235614 
L 378.042372 198.89311 
L 382.967422 192.173648 
L 387.892472 185.127535 
L 394.459206 175.321382 
L 402.667623 162.589276 
L 430.57624 118.718497 
L 437.142973 109.020272 
L 442.068024 102.076899 
L 446.993074 95.478856 
L 451.918124 89.282142 
L 456.843174 83.542757 
L 460.126541 79.998224 
L 463.409907 76.698428 
L 466.693274 73.659962 
L 469.976641 70.899417 
L 473.260008 68.433386 
L 476.543374 66.27846 
L 479.826741 64.451232 
L 483.110108 62.968294 
L 486.393474 61.846236 
L 489.676841 61.094905 
L 492.960208 60.702036 
L 496.243575 60.650845 
L 499.526941 60.924544 
L 502.810308 61.506349 
L 506.093675 62.379473 
L 509.377042 63.52713 
L 512.660408 64.932534 
L 515.943775 66.578899 
L 519.227142 68.44944 
L 522.510509 70.52737 
L 525.793875 72.795902 
L 530.718925 76.519363 
L 535.643975 80.577261 
L 540.569026 84.912941 
L 547.135759 91.028038 
L 555.344176 99.020156 
L 573.402693 116.73388 
L 579.969426 122.800265 
L 584.894476 127.086625 
L 589.819527 131.084241 
L 594.744577 134.736462 
L 598.027943 136.953194 
L 601.31131 138.991193 
L 604.594677 140.854533 
L 607.878044 142.54732 
L 612.803094 144.77569 
L 617.728144 146.643401 
L 622.653194 148.164303 
L 627.578244 149.35225 
L 632.503294 150.221092 
L 637.428344 150.784682 
L 642.353394 151.056872 
L 647.278444 151.051512 
L 652.203494 150.782456 
L 657.128545 150.263554 
L 662.053595 149.508659 
L 666.978645 148.531622 
L 671.903695 147.346295 
L 676.828745 145.96653 
L 683.395478 143.848326 
L 689.962212 141.441913 
L 696.528945 138.780126 
L 703.095679 135.895798 
L 711.304096 132.02746 
L 721.154196 127.084478 
L 732.645979 121.042739 
L 762.19628 105.340103 
L 772.04638 100.43423 
L 780.254797 96.60779 
L 786.821531 93.764162 
L 793.388264 91.14946 
L 799.954997 88.796516 
L 806.521731 86.738165 
L 811.446781 85.40748 
L 816.371831 84.274824 
L 821.296881 83.35405 
L 826.221931 82.659008 
L 831.146981 82.203551 
L 836.072032 82.00153 
L 840.997082 82.066798 
L 845.922132 82.413205 
L 850.847182 83.054605 
L 855.772232 84.004848 
L 860.697282 85.277786 
L 865.622332 86.887272 
L 868.905699 88.154073 
L 872.189066 89.580712 
L 875.472432 91.171292 
L 878.755799 92.929918 
L 882.039166 94.860693 
L 885.322533 96.967722 
L 888.605899 99.25511 
L 891.889266 101.72696 
L 895.172633 104.387377 
L 898.455999 107.240465 
L 903.38105 111.890333 
L 908.3061 116.996797 
L 913.23115 122.573709 
L 918.1562 128.634921 
L 923.08125 135.194284 
L 923.08125 135.194284 
" clip-path="url(#pb1d6ca981d)" style="fill: none; stroke: #ff7f0e; stroke-width: 1.5; stroke-linecap: square"/>
   </g>
   <g id="line2d_22">
    <path d="M 103.88125 371.334203 
L 107.164617 366.867411 
L 112.089667 359.681637 
L 117.014717 351.963392 
L 121.939767 343.769189 
L 126.864817 335.15554 
L 133.431551 323.115878 
L 139.998284 310.564956 
L 148.206701 294.361413 
L 164.623535 261.232229 
L 174.473635 241.595836 
L 181.040368 228.884447 
L 187.607102 216.632969 
L 192.532152 207.82676 
L 197.457202 199.411113 
L 202.382252 191.44254 
L 207.307302 183.977554 
L 210.590669 179.308574 
L 213.874036 174.905218 
L 217.157402 170.776566 
L 220.440769 166.916222 
L 223.724136 163.31591 
L 227.007503 159.967353 
L 230.290869 156.862276 
L 233.574236 153.992403 
L 236.857603 151.349457 
L 240.140969 148.925164 
L 243.424336 146.711247 
L 246.707703 144.69943 
L 249.99107 142.881437 
L 253.274436 141.248993 
L 256.557803 139.793821 
L 259.84117 138.507645 
L 264.76622 136.877147 
L 269.69127 135.580339 
L 274.61632 134.58929 
L 279.54137 133.876069 
L 284.46642 133.412745 
L 289.39147 133.171385 
L 294.316521 133.12406 
L 300.883254 133.314515 
L 307.449987 133.734057 
L 315.658404 134.479775 
L 341.925338 137.070091 
L 348.492072 137.421417 
L 355.058805 137.521826 
L 359.983855 137.392642 
L 364.908905 137.057144 
L 369.833955 136.487403 
L 374.759006 135.655485 
L 379.684056 134.53479 
L 384.609106 133.122565 
L 389.534156 131.436688 
L 394.459206 129.495718 
L 399.384256 127.318214 
L 404.309306 124.922735 
L 409.234356 122.327839 
L 415.80109 118.589851 
L 422.367823 114.574329 
L 428.934557 110.325263 
L 437.142973 104.752527 
L 446.993074 97.795268 
L 479.826741 74.324019 
L 488.035158 68.832581 
L 496.243575 63.640991 
L 504.451991 58.766499 
L 511.018725 55.102955 
L 517.585458 51.655619 
L 524.152192 48.430389 
L 530.718925 45.433159 
L 537.285659 42.669827 
L 543.852392 40.146287 
L 550.419126 37.868437 
L 556.985859 35.842171 
L 563.552593 34.073387 
L 570.119326 32.56798 
L 576.68606 31.331846 
L 583.252793 30.370881 
L 589.819527 29.690981 
L 596.38626 29.298032 
L 602.952993 29.192794 
L 609.519727 29.362863 
L 616.08646 29.793747 
L 622.653194 30.470954 
L 629.219927 31.379991 
L 635.786661 32.506366 
L 642.353394 33.835587 
L 650.561811 35.760288 
L 658.770228 37.950986 
L 666.978645 40.379377 
L 675.187062 43.017156 
L 685.037162 46.419028 
L 696.528945 50.652197 
L 709.662412 55.743551 
L 731.004296 64.305104 
L 752.34618 72.78965 
L 765.479647 77.757062 
L 775.329747 81.270103 
L 785.179847 84.546639 
L 793.388264 87.061136 
L 801.596681 89.349124 
L 809.805098 91.382296 
L 816.371831 92.806346 
L 822.938565 94.034706 
L 829.505298 95.052886 
L 836.072032 95.846392 
L 842.638765 96.400732 
L 849.205498 96.701415 
L 855.772232 96.733947 
L 862.338965 96.483838 
L 867.264016 96.102054 
L 872.189066 95.547018 
L 877.114116 94.812616 
L 882.039166 93.892734 
L 886.964216 92.781259 
L 891.889266 91.472076 
L 896.814316 89.959072 
L 901.739366 88.236132 
L 906.664416 86.297144 
L 911.589466 84.135992 
L 916.514517 81.746563 
L 921.439567 79.122743 
L 923.08125 78.194993 
L 923.08125 78.194993 
" clip-path="url(#pb1d6ca981d)" style="fill: none; stroke: #2ca02c; stroke-width: 1.5; stroke-linecap: square"/>
   </g>
   <g id="line2d_23">
    <path d="M 103.88125 395.76247 
L 128.506501 384.659994 
L 174.473635 364.248048 
L 207.307302 349.541642 
L 231.932553 338.258012 
L 317.300088 298.872249 
L 335.358605 290.897143 
L 351.775438 283.871485 
L 366.550589 277.770105 
L 381.325739 271.912214 
L 404.309306 263.123 
L 420.72614 256.744539 
L 432.217923 252.063646 
L 442.068024 247.829082 
L 451.918124 243.327634 
L 460.126541 239.330444 
L 468.334957 235.073595 
L 476.543374 230.523307 
L 483.110108 226.649098 
L 489.676841 222.549238 
L 497.885258 217.116752 
L 506.093675 211.386874 
L 515.943775 204.187025 
L 527.435559 195.446826 
L 542.210709 183.876493 
L 570.119326 161.946487 
L 581.61111 153.247947 
L 591.46121 146.097871 
L 599.669627 140.418364 
L 607.878044 135.021681 
L 616.08646 129.913523 
L 624.294877 125.098782 
L 632.503294 120.58235 
L 640.711711 116.369121 
L 647.278444 113.220132 
L 653.845178 110.270828 
L 660.411911 107.523715 
L 666.978645 104.981299 
L 673.545378 102.646083 
L 680.112112 100.520573 
L 686.678845 98.607274 
L 693.245579 96.908691 
L 699.812312 95.42733 
L 706.379046 94.165695 
L 712.945779 93.12629 
L 719.512513 92.311622 
L 726.079246 91.724196 
L 732.645979 91.366516 
L 739.212713 91.241087 
L 745.779446 91.350414 
L 752.34618 91.697003 
L 758.912913 92.283358 
L 765.479647 93.111985 
L 772.04638 94.185388 
L 778.613114 95.506073 
L 785.179847 97.076545 
L 791.746581 98.899308 
L 798.313314 100.976868 
L 804.880048 103.31173 
L 811.446781 105.906398 
L 818.013515 108.763378 
L 824.580248 111.885175 
L 831.146981 115.274294 
L 837.713715 118.93324 
L 844.280448 122.864518 
L 850.847182 127.070632 
L 857.413915 131.554089 
L 863.980649 136.317393 
L 870.547382 141.363048 
L 877.114116 146.693561 
L 883.680849 152.311437 
L 890.247583 158.219179 
L 896.814316 164.419293 
L 903.38105 170.914285 
L 909.947783 177.706659 
L 916.514517 184.798921 
L 923.08125 192.193575 
L 923.08125 192.193575 
" clip-path="url(#pb1d6ca981d)" style="fill: none; stroke: #d62728; stroke-width: 1.5; stroke-linecap: square"/>
   </g>
   <g id="line2d_24">
    <path d="M 103.88125 159.622551 
L 923.08125 159.622551 
L 923.08125 159.622551 
" clip-path="url(#pb1d6ca981d)" style="fill: none; stroke: #9467bd; stroke-width: 1.5; stroke-linecap: square"/>
   </g>
   <g id="patch_3">
    <path d="M 62.92125 491.04 
L 62.92125 7.2 
" style="fill: none; stroke: #000000; stroke-width: 0.8; stroke-linejoin: miter; stroke-linecap: square"/>
   </g>
   <g id="patch_4">
    <path d="M 964.04125 491.04 
L 964.04125 7.2 
" style="fill: none; stroke: #000000; stroke-width: 0.8; stroke-linejoin: miter; stroke-linecap: square"/>
   </g>
   <g id="patch_5">
    <path d="M 62.92125 491.04 
L 964.04125 491.04 
" style="fill: none; stroke: #000000; stroke-width: 0.8; stroke-linejoin: miter; stroke-linecap: square"/>
   </g>
   <g id="patch_6">
    <path d="M 62.92125 7.2 
L 964.04125 7.2 
" style="fill: none; stroke: #000000; stroke-width: 0.8; stroke-linejoin: miter; stroke-linecap: square"/>
   </g>
   <g id="legend_1">
    <g id="patch_7">
     <path d="M 72.72125 121.146875 
L 233.480625 121.146875 
Q 236.280625 121.146875 236.280625 118.346875 
L 236.280625 17 
Q 236.280625 14.2 233.480625 14.2 
L 72.72125 14.2 
Q 69.92125 14.2 69.92125 17 
L 69.92125 118.346875 
Q 69.92125 121.146875 72.72125 121.146875 
z
" style="fill: #ffffff; opacity: 0.8; stroke: #cccccc; stroke-linejoin: miter"/>
    </g>
    <g id="line2d_25">
     <path d="M 75.52125 25.537812 
L 89.52125 25.537812 
L 103.52125 25.537812 
" style="fill: none; stroke: #1f77b4; stroke-width: 1.5; stroke-linecap: square"/>
    </g>
    <g id="text_22">
     <!-- Paragon -->
     <g transform="translate(114.72125 30.437812) scale(0.14 -0.14)">
      <defs>
       <path id="DejaVuSans-50" d="M 1259 4147 
L 1259 2394 
L 2053 2394 
Q 2494 2394 2734 2622 
Q 2975 2850 2975 3272 
Q 2975 3691 2734 3919 
Q 2494 4147 2053 4147 
L 1259 4147 
z
M 628 4666 
L 2053 4666 
Q 2838 4666 3239 4311 
Q 3641 3956 3641 3272 
Q 3641 2581 3239 2228 
Q 2838 1875 2053 1875 
L 1259 1875 
L 1259 0 
L 628 0 
L 628 4666 
z
" transform="scale(0.015625)"/>
       <path id="DejaVuSans-67" d="M 2906 1791 
Q 2906 2416 2648 2759 
Q 2391 3103 1925 3103 
Q 1463 3103 1205 2759 
Q 947 2416 947 1791 
Q 947 1169 1205 825 
Q 1463 481 1925 481 
Q 2391 481 2648 825 
Q 2906 1169 2906 1791 
z
M 3481 434 
Q 3481 -459 3084 -895 
Q 2688 -1331 1869 -1331 
Q 1566 -1331 1297 -1286 
Q 1028 -1241 775 -1147 
L 775 -588 
Q 1028 -725 1275 -790 
Q 1522 -856 1778 -856 
Q 2344 -856 2625 -561 
Q 2906 -266 2906 331 
L 2906 616 
Q 2728 306 2450 153 
Q 2172 0 1784 0 
Q 1141 0 747 490 
Q 353 981 353 1791 
Q 353 2603 747 3093 
Q 1141 3584 1784 3584 
Q 2172 3584 2450 3431 
Q 2728 3278 2906 2969 
L 2906 3500 
L 3481 3500 
L 3481 434 
z
" transform="scale(0.015625)"/>
       <path id="DejaVuSans-6e" d="M 3513 2113 
L 3513 0 
L 2938 0 
L 2938 2094 
Q 2938 2591 2744 2837 
Q 2550 3084 2163 3084 
Q 1697 3084 1428 2787 
Q 1159 2491 1159 1978 
L 1159 0 
L 581 0 
L 581 3500 
L 1159 3500 
L 1159 2956 
Q 1366 3272 1645 3428 
Q 1925 3584 2291 3584 
Q 2894 3584 3203 3211 
Q 3513 2838 3513 2113 
z
" transform="scale(0.015625)"/>
      </defs>
      <use xlink:href="#DejaVuSans-50"/>
      <use xlink:href="#DejaVuSans-61" x="55.802734"/>
      <use xlink:href="#DejaVuSans-72" x="117.082031"/>
      <use xlink:href="#DejaVuSans-61" x="158.195312"/>
      <use xlink:href="#DejaVuSans-67" x="219.474609"/>
      <use xlink:href="#DejaVuSans-6f" x="282.951172"/>
      <use xlink:href="#DejaVuSans-6e" x="344.132812"/>
     </g>
    </g>
    <g id="line2d_26">
     <path d="M 75.52125 46.087187 
L 89.52125 46.087187 
L 103.52125 46.087187 
" style="fill: none; stroke: #ff7f0e; stroke-width: 1.5; stroke-linecap: square"/>
    </g>
    <g id="text_23">
     <!-- Prophet -->
     <g transform="translate(114.72125 50.987187) scale(0.14 -0.14)">
      <defs>
       <path id="DejaVuSans-68" d="M 3513 2113 
L 3513 0 
L 2938 0 
L 2938 2094 
Q 2938 2591 2744 2837 
Q 2550 3084 2163 3084 
Q 1697 3084 1428 2787 
Q 1159 2491 1159 1978 
L 1159 0 
L 581 0 
L 581 4863 
L 1159 4863 
L 1159 2956 
Q 1366 3272 1645 3428 
Q 1925 3584 2291 3584 
Q 2894 3584 3203 3211 
Q 3513 2838 3513 2113 
z
" transform="scale(0.015625)"/>
       <path id="DejaVuSans-74" d="M 1172 4494 
L 1172 3500 
L 2356 3500 
L 2356 3053 
L 1172 3053 
L 1172 1153 
Q 1172 725 1289 603 
Q 1406 481 1766 481 
L 2356 481 
L 2356 0 
L 1766 0 
Q 1100 0 847 248 
Q 594 497 594 1153 
L 594 3053 
L 172 3053 
L 172 3500 
L 594 3500 
L 594 4494 
L 1172 4494 
z
" transform="scale(0.015625)"/>
      </defs>
      <use xlink:href="#DejaVuSans-50"/>
      <use xlink:href="#DejaVuSans-72" x="58.552734"/>
      <use xlink:href="#DejaVuSans-6f" x="97.416016"/>
      <use xlink:href="#DejaVuSans-70" x="158.597656"/>
      <use xlink:href="#DejaVuSans-68" x="222.074219"/>
      <use xlink:href="#DejaVuSans-65" x="285.453125"/>
      <use xlink:href="#DejaVuSans-74" x="346.976562"/>
     </g>
    </g>
    <g id="line2d_27">
     <path d="M 75.52125 66.636562 
L 89.52125 66.636562 
L 103.52125 66.636562 
" style="fill: none; stroke: #2ca02c; stroke-width: 1.5; stroke-linecap: square"/>
    </g>
    <g id="text_24">
     <!-- Mage -->
     <g transform="translate(114.72125 71.536562) scale(0.14 -0.14)">
      <defs>
       <path id="DejaVuSans-4d" d="M 628 4666 
L 1569 4666 
L 2759 1491 
L 3956 4666 
L 4897 4666 
L 4897 0 
L 4281 0 
L 4281 4097 
L 3078 897 
L 2444 897 
L 1241 4097 
L 1241 0 
L 628 0 
L 628 4666 
z
" transform="scale(0.015625)"/>
      </defs>
      <use xlink:href="#DejaVuSans-4d"/>
      <use xlink:href="#DejaVuSans-61" x="86.279297"/>
      <use xlink:href="#DejaVuSans-67" x="147.558594"/>
      <use xlink:href="#DejaVuSans-65" x="211.035156"/>
     </g>
    </g>
    <g id="line2d_28">
     <path d="M 75.52125 87.185937 
L 89.52125 87.185937 
L 103.52125 87.185937 
" style="fill: none; stroke: #d62728; stroke-width: 1.5; stroke-linecap: square"/>
    </g>
    <g id="text_25">
     <!-- Spread-n-shared -->
     <g transform="translate(114.72125 92.085937) scale(0.14 -0.14)">
      <defs>
       <path id="DejaVuSans-53" d="M 3425 4513 
L 3425 3897 
Q 3066 4069 2747 4153 
Q 2428 4238 2131 4238 
Q 1616 4238 1336 4038 
Q 1056 3838 1056 3469 
Q 1056 3159 1242 3001 
Q 1428 2844 1947 2747 
L 2328 2669 
Q 3034 2534 3370 2195 
Q 3706 1856 3706 1288 
Q 3706 609 3251 259 
Q 2797 -91 1919 -91 
Q 1588 -91 1214 -16 
Q 841 59 441 206 
L 441 856 
Q 825 641 1194 531 
Q 1563 422 1919 422 
Q 2459 422 2753 634 
Q 3047 847 3047 1241 
Q 3047 1584 2836 1778 
Q 2625 1972 2144 2069 
L 1759 2144 
Q 1053 2284 737 2584 
Q 422 2884 422 3419 
Q 422 4038 858 4394 
Q 1294 4750 2059 4750 
Q 2388 4750 2728 4690 
Q 3069 4631 3425 4513 
z
" transform="scale(0.015625)"/>
      </defs>
      <use xlink:href="#DejaVuSans-53"/>
      <use xlink:href="#DejaVuSans-70" x="63.476562"/>
      <use xlink:href="#DejaVuSans-72" x="126.953125"/>
      <use xlink:href="#DejaVuSans-65" x="165.816406"/>
      <use xlink:href="#DejaVuSans-61" x="227.339844"/>
      <use xlink:href="#DejaVuSans-64" x="288.619141"/>
      <use xlink:href="#DejaVuSans-2d" x="352.095703"/>
      <use xlink:href="#DejaVuSans-6e" x="388.179688"/>
      <use xlink:href="#DejaVuSans-2d" x="451.558594"/>
      <use xlink:href="#DejaVuSans-73" x="487.642578"/>
      <use xlink:href="#DejaVuSans-68" x="539.742188"/>
      <use xlink:href="#DejaVuSans-61" x="603.121094"/>
      <use xlink:href="#DejaVuSans-72" x="664.400391"/>
      <use xlink:href="#DejaVuSans-65" x="703.263672"/>
      <use xlink:href="#DejaVuSans-64" x="764.787109"/>
     </g>
    </g>
    <g id="line2d_29">
     <path d="M 75.52125 107.735312 
L 89.52125 107.735312 
L 103.52125 107.735312 
" style="fill: none; stroke: #9467bd; stroke-width: 1.5; stroke-linecap: square"/>
    </g>
    <g id="text_26">
     <!-- Base=1.0 -->
     <g transform="translate(114.72125 112.635312) scale(0.14 -0.14)">
      <defs>
       <path id="DejaVuSans-42" d="M 1259 2228 
L 1259 519 
L 2272 519 
Q 2781 519 3026 730 
Q 3272 941 3272 1375 
Q 3272 1813 3026 2020 
Q 2781 2228 2272 2228 
L 1259 2228 
z
M 1259 4147 
L 1259 2741 
L 2194 2741 
Q 2656 2741 2882 2914 
Q 3109 3088 3109 3444 
Q 3109 3797 2882 3972 
Q 2656 4147 2194 4147 
L 1259 4147 
z
M 628 4666 
L 2241 4666 
Q 2963 4666 3353 4366 
Q 3744 4066 3744 3513 
Q 3744 3084 3544 2831 
Q 3344 2578 2956 2516 
Q 3422 2416 3680 2098 
Q 3938 1781 3938 1306 
Q 3938 681 3513 340 
Q 3088 0 2303 0 
L 628 0 
L 628 4666 
z
" transform="scale(0.015625)"/>
       <path id="DejaVuSans-3d" d="M 678 2906 
L 4684 2906 
L 4684 2381 
L 678 2381 
L 678 2906 
z
M 678 1631 
L 4684 1631 
L 4684 1100 
L 678 1100 
L 678 1631 
z
" transform="scale(0.015625)"/>
      </defs>
      <use xlink:href="#DejaVuSans-42"/>
      <use xlink:href="#DejaVuSans-61" x="68.603516"/>
      <use xlink:href="#DejaVuSans-73" x="129.882812"/>
      <use xlink:href="#DejaVuSans-65" x="181.982422"/>
      <use xlink:href="#DejaVuSans-3d" x="243.505859"/>
      <use xlink:href="#DejaVuSans-31" x="327.294922"/>
      <use xlink:href="#DejaVuSans-2e" x="390.917969"/>
      <use xlink:href="#DejaVuSans-30" x="422.705078"/>
     </g>
    </g>
   </g>
  </g>
 </g>
 <defs>
  <clipPath id="pb1d6ca981d">
   <rect x="62.92125" y="7.2" width="901.12" height="483.84"/>
  </clipPath>
 </defs>
</svg>
